<?xml version="1.0" standalone="no"?>
<!DOCTYPE svg PUBLIC "-//W3C//DTD SVG 20010904//EN"
 "http://www.w3.org/TR/2001/REC-SVG-20010904/DTD/svg10.dtd">
<svg version="1.0" xmlns="http://www.w3.org/2000/svg"
 width="1250.000000pt" height="950.000000pt" viewBox="0 0 1250.000000 950.000000"
 preserveAspectRatio="xMidYMid meet">

<g transform="translate(0.000000,950.000000) scale(0.100000,-0.100000)"
fill="#000000" stroke="none">
<path d="M1440 9489 c0 -5 5 -7 10 -4 6 3 10 8 10 11 0 2 -4 4 -10 4 -5 0 -10
-5 -10 -11z"/>
<path d="M5355 9490 c3 -5 8 -10 11 -10 2 0 4 5 4 10 0 6 -5 10 -11 10 -5 0
-7 -4 -4 -10z"/>
<path d="M5970 9489 c0 -5 5 -7 10 -4 6 3 10 8 10 11 0 2 -4 4 -10 4 -5 0 -10
-5 -10 -11z"/>
<path d="M9885 9490 c3 -5 8 -10 11 -10 2 0 4 5 4 10 0 6 -5 10 -11 10 -5 0
-7 -4 -4 -10z"/>
<path d="M720 9390 c0 -5 5 -10 11 -10 5 0 7 5 4 10 -3 6 -8 10 -11 10 -2 0
-4 -4 -4 -10z"/>
<path d="M5995 9326 c-340 -56 -598 -189 -846 -436 -178 -177 -297 -366 -368
-582 -21 -64 -24 -68 -59 -74 -102 -18 -215 -105 -258 -198 -40 -88 -44 -133
-29 -350 13 -182 17 -203 43 -260 56 -119 170 -202 291 -213 50 -5 60 -9 65
-27 9 -35 105 -196 164 -276 31 -41 85 -106 121 -143 l65 -68 -44 8 c-25 4
-126 8 -225 8 -146 0 -191 -4 -240 -18 -126 -39 -200 -91 -264 -186 -179 -263
-315 -768 -337 -1243 -12 -261 19 -402 113 -516 92 -112 288 -216 495 -262 55
-13 58 -15 93 -75 72 -123 187 -217 386 -316 l107 -52 -83 -59 c-103 -74 -247
-188 -302 -241 l-41 -40 -94 46 c-139 67 -273 92 -425 77 -55 -6 -80 -5 -85 4
-6 8 -10 8 -16 -2 -5 -7 -50 -24 -101 -37 -116 -31 -196 -63 -335 -132 -147
-74 -236 -131 -247 -159 -9 -25 2 -67 21 -79 6 -4 81 -22 166 -41 181 -41 303
-79 412 -129 81 -38 202 -112 202 -125 0 -4 -44 -37 -98 -73 -119 -80 -164
-124 -200 -197 -24 -49 -27 -66 -27 -161 l0 -105 -55 32 c-100 59 -200 87
-336 92 -144 5 -240 -15 -368 -77 -191 -92 -285 -198 -461 -516 -102 -185
-163 -272 -260 -374 -107 -112 -223 -197 -376 -276 -145 -74 -157 -85 -141
-120 15 -33 43 -32 138 5 174 70 380 105 552 95 131 -7 219 -24 437 -85 238
-66 366 -85 485 -71 304 37 552 237 645 519 l17 53 49 -70 c58 -82 96 -116
166 -148 74 -34 134 -38 272 -18 67 10 124 15 128 12 10 -11 -25 -134 -68
-235 -50 -118 -107 -220 -212 -374 -69 -102 -78 -120 -72 -147 13 -62 52 -64
238 -17 300 77 506 183 663 340 89 89 162 202 190 296 l17 58 126 7 c338 17
709 80 1009 171 46 14 89 23 95 21 7 -2 17 2 22 8 6 7 42 23 80 35 311 99 763
315 1074 513 711 452 1237 1086 1467 1771 48 144 53 191 25 252 -28 61 -89
106 -255 188 -356 176 -728 277 -1166 316 -63 5 -143 10 -177 10 -50 0 -67 4
-90 24 -84 70 -353 222 -541 304 l-72 32 6 95 c6 87 5 98 -18 147 -15 32 -30
89 -37 142 -13 92 -28 133 -61 166 -23 23 -36 19 138 45 536 79 1083 358 1347
689 125 156 163 263 172 489 10 245 -40 381 -172 465 -34 23 -51 27 -115 27
-92 0 -146 -23 -267 -113 l-82 -61 -30 42 c-16 24 -48 56 -72 71 -35 24 -49
27 -88 23 -83 -9 -132 -98 -153 -279 l-12 -99 -96 -65 c-91 -60 -300 -167
-309 -158 -3 2 5 14 16 27 74 82 202 315 244 447 l22 68 64 17 c144 39 249
162 268 312 4 26 0 135 -9 242 -13 181 -16 197 -45 256 -55 112 -168 192 -283
203 l-58 5 -37 76 c-201 408 -597 714 -1053 811 -131 28 -420 37 -545 16z
m515 -121 c255 -56 493 -178 670 -344 l75 -70 -77 40 c-260 134 -522 196 -869
206 -418 12 -766 -62 -1052 -224 -33 -18 -62 -33 -65 -33 -10 0 43 52 118 115
196 164 422 270 670 316 130 23 409 20 530 -6z m80 -299 c354 -61 644 -197
825 -387 l50 -53 -52 47 c-193 174 -491 292 -858 338 -147 19 -503 16 -654 -5
-387 -53 -661 -165 -865 -356 -59 -54 -65 -58 -38 -23 18 23 61 67 95 96 217
190 500 306 857 352 140 19 509 13 640 -9z m-366 -284 c3 -5 -28 -19 -69 -31
-98 -30 -297 -128 -398 -195 -147 -98 -278 -225 -352 -341 -78 -122 -193 -386
-256 -588 -22 -72 -43 -139 -46 -147 -8 -22 -40 108 -59 243 -12 87 -15 155
-11 255 15 360 148 536 524 691 116 48 324 101 443 114 71 8 219 7 224 -1z
m1529 -334 c37 -19 99 -83 119 -122 28 -55 55 -384 38 -463 -18 -83 -91 -165
-167 -187 -20 -7 -21 -5 -10 36 7 25 11 134 11 263 0 208 -1 226 -28 335 -15
63 -30 125 -33 138 -5 21 -3 22 23 16 16 -4 37 -11 47 -16z m-441 -184 c73
-37 109 -152 84 -273 -20 -94 -56 -155 -114 -192 -82 -52 -163 -31 -217 56
-28 45 -30 55 -30 145 0 87 3 102 30 155 59 115 152 156 247 109z m-2586 -1
c-13 -46 -26 -186 -26 -288 0 -132 22 -295 55 -410 13 -44 22 -81 21 -82 -8
-8 -80 22 -114 47 -94 68 -113 135 -116 406 l-1 180 30 50 c44 70 167 149 151
97z m2342 -669 c27 -31 30 -102 5 -145 -21 -36 -76 -63 -110 -54 -13 3 -36 17
-50 31 -22 23 -25 32 -21 80 9 108 112 160 176 88z m1518 -75 c40 -24 76 -83
98 -158 35 -120 10 -384 -47 -497 -111 -220 -435 -471 -809 -627 -37 -16 -37
-16 -64 16 -76 89 -138 334 -159 622 l-7 90 48 25 c65 33 189 114 242 158 39
32 42 38 42 82 0 58 26 210 42 244 15 34 31 33 63 -5 38 -46 62 -97 79 -173 9
-37 22 -79 30 -94 16 -30 73 -88 80 -81 3 2 -3 51 -12 107 l-16 102 35 36 c47
49 126 108 190 144 65 36 118 39 165 9z m-1076 -674 c0 -68 25 -239 50 -344
26 -108 52 -179 95 -257 l33 -62 -71 -21 c-179 -52 -347 -85 -517 -100 -52 -4
-96 -7 -97 -7 -1 1 -9 35 -18 76 -34 167 -59 245 -79 248 -18 4 -19 -4 -14
-201 l5 -204 -60 -7 c-33 -3 -140 -6 -238 -6 l-179 0 -182 160 c-230 202 -283
244 -303 236 -13 -5 -12 -12 9 -53 61 -121 198 -270 378 -410 l99 -77 -73 -34
c-141 -67 -270 -228 -364 -454 l-37 -88 -31 18 c-17 9 -128 115 -247 235 -158
159 -222 218 -235 215 -20 -4 -20 -6 -10 -52 l7 -29 -97 7 c-165 11 -478 67
-500 88 -6 6 34 136 84 273 57 158 181 395 301 577 l110 167 68 -45 c144 -95
344 -177 531 -216 152 -32 449 -32 598 0 215 46 426 139 595 261 69 50 123 80
193 106 53 20 115 44 139 54 50 22 57 16 57 -54z m-485 -34 c-28 -28 -188
-115 -268 -146 -394 -152 -805 -134 -1172 52 -87 44 -180 103 -140 88 11 -4
61 -22 110 -41 254 -96 546 -138 800 -114 221 20 468 79 628 150 50 22 54 23
42 11z m-1912 -52 c40 -6 73 -12 75 -14 2 -2 -21 -39 -51 -82 -30 -43 -64 -97
-77 -120 -13 -24 -29 -43 -35 -43 -7 0 -77 31 -156 68 -79 38 -172 81 -206 97
-35 16 -63 32 -63 36 0 13 36 29 113 49 84 22 285 27 400 9z m-263 -262 c52
-19 107 -40 123 -46 l27 -11 -56 -111 c-74 -149 -133 -295 -184 -459 -45 -142
-63 -180 -59 -120 7 116 -15 139 -207 214 -119 47 -155 57 -186 53 l-39 -5 7
31 c38 181 161 490 221 559 16 18 33 12 353 -105z m-374 -635 l119 -48 3 -42
c4 -50 -30 -245 -56 -323 -43 -131 -101 -189 -176 -175 -92 17 -132 96 -130
261 1 137 38 339 66 367 22 22 16 23 174 -40z m2603 1 c14 -12 24 -36 30 -69
l8 -52 -91 -7 c-70 -5 -101 -12 -133 -31 -24 -14 -43 -29 -43 -34 0 -21 -27
-6 -158 88 -126 89 -134 97 -107 100 30 3 341 18 426 21 32 1 54 -5 68 -16z
m-483 -175 c32 -22 173 -120 313 -216 451 -309 634 -461 687 -568 32 -65 28
-95 -17 -166 -91 -142 -291 -248 -441 -235 -106 9 -183 66 -355 263 -61 70
-62 71 -205 129 -160 64 -379 173 -480 237 l-67 43 23 65 c74 211 213 398 336
453 104 47 134 46 206 -5z m532 -44 c12 -8 29 -28 37 -44 16 -30 21 -145 7
-154 -4 -2 -26 7 -48 22 -141 93 -133 82 -110 136 23 54 70 71 114 40z m-2263
-34 c144 -39 430 -80 564 -80 53 0 57 -2 81 -37 14 -20 60 -71 102 -114 l77
-77 -82 -13 c-127 -21 -509 -19 -614 4 -126 27 -192 56 -245 107 -43 41 -48
51 -48 89 0 44 7 63 44 119 13 20 26 30 36 26 8 -3 47 -14 85 -24z m-217 -354
c-6 -121 6 -302 27 -405 9 -45 15 -85 13 -87 -8 -8 -178 55 -248 91 -161 86
-237 190 -254 355 l-7 65 33 -31 c46 -44 91 -65 153 -71 100 -10 182 41 237
151 26 51 32 57 40 42 6 -11 8 -58 6 -110z m217 -30 c121 -42 203 -51 445 -50
179 0 257 4 325 17 121 23 115 25 115 -31 0 -64 27 -112 78 -138 32 -17 68
-23 166 -29 l126 -7 122 -64 c68 -35 119 -64 115 -64 -5 0 -32 7 -61 15 -29 9
-84 16 -122 18 -98 3 -92 -17 19 -61 48 -19 87 -38 87 -42 0 -4 -22 -10 -48
-13 -203 -24 -423 -185 -524 -383 -27 -54 -53 -124 -63 -170 -10 -44 -19 -81
-21 -83 -2 -2 -18 9 -36 24 -18 15 -112 66 -208 112 -315 151 -400 205 -471
298 -96 127 -139 279 -146 523 l-6 174 29 -15 c16 -8 51 -22 79 -31z m1032
-91 l46 -35 -30 0 c-35 0 -58 17 -68 48 -9 30 -2 28 52 -13z m1798 -102 c18
-12 18 -13 -10 -13 -23 0 -37 9 -60 37 l-29 37 39 -24 c22 -13 49 -30 60 -37z
m115 -152 c96 -136 293 -503 395 -736 143 -329 293 -823 340 -1120 l6 -40
-103 -86 c-465 -387 -1022 -684 -1638 -873 -329 -101 -627 -155 -974 -178
-269 -17 -581 5 -799 58 -65 16 -71 20 -124 83 -30 36 -86 113 -124 171 l-70
104 58 16 c177 49 338 170 465 350 44 63 118 200 118 219 0 12 -108 54 -190
75 -230 56 -442 41 -612 -45 -33 -17 -61 -29 -63 -27 -8 9 -36 205 -42 290
l-6 97 34 53 c159 248 510 590 826 805 l84 57 55 -30 c87 -45 140 -102 161
-171 18 -61 20 -116 13 -423 -3 -129 0 -182 14 -242 20 -92 61 -197 108 -275
51 -87 171 -202 255 -246 303 -158 695 -61 773 190 11 36 20 76 20 89 0 23 2
22 53 -18 220 -179 540 -213 793 -85 199 102 339 277 395 498 20 77 17 267 -5
349 -69 257 -257 451 -516 531 -99 31 -301 33 -395 5 -86 -26 -180 -70 -235
-110 l-48 -35 -7 62 c-19 180 -83 333 -182 438 l-35 36 25 7 c37 9 46 2 112
-81 201 -254 412 -313 668 -189 192 93 332 278 313 413 l-6 43 35 0 c26 0 38
-7 55 -29z m-1320 -71 c8 -5 11 -10 5 -10 -5 0 -17 5 -25 10 -8 5 -10 10 -5
10 6 0 17 -5 25 -10z m0 -145 c87 -60 162 -183 201 -331 25 -95 30 -262 10
-344 -39 -160 -152 -287 -321 -361 -47 -21 -71 -24 -167 -24 -109 0 -111 0
-95 -19 9 -10 40 -29 67 -42 66 -31 176 -33 260 -4 32 11 61 20 65 20 25 0
133 -259 156 -373 39 -189 -12 -292 -177 -358 -74 -30 -221 -37 -306 -15 -157
40 -297 153 -370 301 -79 158 -97 280 -81 541 10 163 10 190 -7 274 -31 165
-3 334 81 471 42 71 162 185 234 223 107 58 184 76 301 73 99 -2 109 -4 149
-32z m1008 -459 c83 -29 161 -71 212 -115 33 -29 30 -28 -35 9 -268 153 -585
120 -815 -87 -45 -40 -52 -44 -45 -23 26 87 228 210 393 240 77 15 209 3 290
-24z m-93 -221 c111 -29 204 -108 254 -214 22 -48 26 -69 26 -151 0 -86 -3
-101 -31 -160 -40 -84 -100 -144 -182 -183 -61 -29 -76 -32 -162 -32 -86 0
-101 3 -160 31 -247 117 -295 445 -92 625 98 87 221 116 347 84z m-2851 -120
c38 -8 98 -28 134 -45 63 -29 64 -31 48 -49 -16 -18 -20 -18 -54 -4 -209 89
-505 58 -809 -82 -77 -35 -107 -42 -131 -26 -10 6 16 23 85 59 269 137 527
189 727 147z m-203 -855 c5 -41 17 -108 25 -149 l15 -73 -112 -112 c-92 -91
-111 -106 -107 -84 3 15 2 29 -3 30 -14 5 -50 245 -43 287 10 62 61 129 139
183 l70 49 2 -28 c2 -15 8 -62 14 -103z m744 -186 c97 -19 136 -38 55 -28
-275 34 -421 14 -577 -78 -87 -51 -185 -136 -273 -236 -36 -40 -74 -78 -84
-84 -19 -11 -19 -10 0 20 42 67 171 208 242 264 192 152 371 192 637 142z
m-1337 -60 c71 -18 205 -83 253 -123 30 -25 39 -43 58 -115 l23 -86 -31 -50
c-17 -28 -31 -54 -31 -59 0 -5 28 -17 63 -26 62 -18 62 -19 90 -79 32 -72 33
-90 8 -179 -56 -193 -166 -329 -338 -416 -33 -17 -68 -32 -79 -34 -10 -2 -26
-7 -34 -10 -18 -8 -45 -11 -81 -9 -23 2 -27 8 -33 42 -4 25 -19 55 -39 78 -61
69 -84 121 -54 123 8 0 8 2 -2 6 -10 4 -10 7 -1 13 9 5 9 9 1 14 -6 4 -11 2
-11 -3 0 -6 -5 -11 -11 -11 -5 0 -8 4 -5 9 4 5 -4 7 -16 3 -15 -4 -19 -2 -13
7 6 10 2 11 -15 6 -16 -5 -20 -4 -16 4 4 6 4 10 -1 9 -4 -1 -33 4 -63 12 -81
22 -367 20 -440 -2 -101 -31 -107 -31 -60 -2 59 36 169 121 198 153 63 69 135
168 138 188 2 9 9 20 16 24 7 5 9 9 4 9 -6 0 -1 7 10 15 18 14 18 14 -3 10
-16 -3 -20 0 -16 11 3 7 9 12 13 9 4 -2 15 4 25 15 17 18 17 20 1 20 -10 0
-16 6 -14 16 2 10 -3 19 -11 22 -11 3 -12 -2 -7 -23 5 -20 3 -26 -6 -23 -8 3
-13 21 -13 46 0 34 -5 46 -29 64 -43 34 -83 71 -68 63 8 -4 12 2 12 16 0 22 0
22 -20 4 -20 -18 -21 -18 -14 0 5 13 4 16 -4 11 -18 -11 -14 1 9 28 12 14 28
22 35 19 9 -3 12 0 9 8 -6 17 61 73 75 64 6 -4 9 -1 8 5 -3 14 106 72 177 95
118 36 233 40 353 9z m767 -524 l71 0 94 -142 c52 -79 101 -148 109 -155 9 -6
13 -14 9 -18 -12 -13 -83 -25 -149 -25 -70 0 -139 25 -158 57 -6 10 -11 14
-11 10 0 -20 -90 109 -164 237 l-29 49 78 -6 c43 -4 110 -7 150 -7z m-1075
-400 c-8 -5 -19 -10 -25 -10 -5 0 -3 5 5 10 8 5 20 10 25 10 6 0 3 -5 -5 -10z"/>
<path d="M3106 2394 c-5 -14 -4 -15 9 -4 17 14 19 20 6 20 -5 0 -12 -7 -15
-16z"/>
<path d="M3148 2377 c3 -12 12 -29 21 -37 13 -13 14 -12 8 10 -4 14 -7 28 -7
31 0 4 -6 9 -14 12 -10 4 -12 0 -8 -16z"/>
<path d="M5045 9180 c3 -5 8 -10 11 -10 2 0 4 5 4 10 0 6 -5 10 -11 10 -5 0
-7 -4 -4 -10z"/>
<path d="M105 8770 c3 -5 8 -10 11 -10 2 0 4 5 4 10 0 6 -5 10 -11 10 -5 0 -7
-4 -4 -10z"/>
<path d="M2160 8770 c0 -5 5 -10 10 -10 6 0 10 5 10 10 0 6 -4 10 -10 10 -5 0
-10 -4 -10 -10z"/>
<path d="M9160 8770 c0 -5 5 -10 10 -10 6 0 10 5 10 10 0 6 -4 10 -10 10 -5 0
-10 -4 -10 -10z"/>
<path d="M11220 8769 c0 -5 5 -7 10 -4 6 3 10 8 10 11 0 2 -4 4 -10 4 -5 0
-10 -5 -10 -11z"/>
<path d="M11325 8670 c-3 -5 -1 -10 4 -10 6 0 11 5 11 10 0 6 -2 10 -4 10 -3
0 -8 -4 -11 -10z"/>
<path d="M2470 8459 c0 -5 5 -7 10 -4 6 3 10 8 10 11 0 2 -4 4 -10 4 -5 0 -10
-5 -10 -11z"/>
<path d="M9265 8460 c3 -5 8 -10 11 -10 2 0 4 5 4 10 0 6 -5 10 -11 10 -5 0
-7 -4 -4 -10z"/>
<path d="M4220 8360 c0 -5 5 -10 11 -10 5 0 7 5 4 10 -3 6 -8 10 -11 10 -2 0
-4 -4 -4 -10z"/>
<path d="M1340 7739 c0 -5 5 -7 10 -4 6 3 10 8 10 11 0 2 -4 4 -10 4 -5 0 -10
-5 -10 -11z"/>
<path d="M3190 7739 c0 -5 5 -7 10 -4 6 3 10 8 10 11 0 2 -4 4 -10 4 -5 0 -10
-5 -10 -11z"/>
<path d="M8135 7740 c3 -5 8 -10 11 -10 2 0 4 5 4 10 0 6 -5 10 -11 10 -5 0
-7 -4 -4 -10z"/>
<path d="M12250 7739 c0 -5 5 -7 10 -4 6 3 10 8 10 11 0 2 -4 4 -10 4 -5 0
-10 -5 -10 -11z"/>
<path d="M1030 7640 c0 -5 5 -10 11 -10 5 0 7 5 4 10 -3 6 -8 10 -11 10 -2 0
-4 -4 -4 -10z"/>
<path d="M3295 7640 c-3 -5 -1 -10 4 -10 6 0 11 5 11 10 0 6 -2 10 -4 10 -3 0
-8 -4 -11 -10z"/>
<path d="M8030 7640 c0 -5 5 -10 11 -10 5 0 7 5 4 10 -3 6 -8 10 -11 10 -2 0
-4 -4 -4 -10z"/>
<path d="M10295 7640 c-3 -5 -1 -10 4 -10 6 0 11 5 11 10 0 6 -2 10 -4 10 -3
0 -8 -4 -11 -10z"/>
<path d="M12350 7640 c0 -5 5 -10 10 -10 6 0 10 5 10 10 0 6 -4 10 -10 10 -5
0 -10 -4 -10 -10z"/>
<path d="M1030 7429 c0 -5 5 -7 10 -4 6 3 10 8 10 11 0 2 -4 4 -10 4 -5 0 -10
-5 -10 -11z"/>
<path d="M10295 7430 c3 -5 8 -10 11 -10 2 0 4 5 4 10 0 6 -5 10 -11 10 -5 0
-7 -4 -4 -10z"/>
<path d="M2060 6610 c0 -5 5 -10 11 -10 5 0 7 5 4 10 -3 6 -8 10 -11 10 -2 0
-4 -4 -4 -10z"/>
<path d="M2470 6610 c0 -5 5 -10 10 -10 6 0 10 5 10 10 0 6 -4 10 -10 10 -5 0
-10 -4 -10 -10z"/>
<path d="M4325 6610 c-3 -5 -1 -10 4 -10 6 0 11 5 11 10 0 6 -2 10 -4 10 -3 0
-8 -4 -11 -10z"/>
<path d="M8850 6610 c0 -5 5 -10 10 -10 6 0 10 5 10 10 0 6 -4 10 -10 10 -5 0
-10 -4 -10 -10z"/>
<path d="M9260 6610 c0 -5 5 -10 10 -10 6 0 10 5 10 10 0 6 -4 10 -10 10 -5 0
-10 -4 -10 -10z"/>
<path d="M11530 6610 c0 -5 5 -10 11 -10 5 0 7 5 4 10 -3 6 -8 10 -11 10 -2 0
-4 -4 -4 -10z"/>
<path d="M105 6510 c-3 -5 -1 -10 4 -10 6 0 11 5 11 10 0 6 -2 10 -4 10 -3 0
-8 -4 -11 -10z"/>
<path d="M2165 6510 c-3 -5 -1 -10 4 -10 6 0 11 5 11 10 0 6 -2 10 -4 10 -3 0
-8 -4 -11 -10z"/>
<path d="M11220 6510 c0 -5 5 -10 11 -10 5 0 7 5 4 10 -3 6 -8 10 -11 10 -2 0
-4 -4 -4 -10z"/>
<path d="M11220 6299 c0 -5 5 -7 10 -4 6 3 10 8 10 11 0 2 -4 4 -10 4 -5 0
-10 -5 -10 -11z"/>
<path d="M4015 5890 c3 -5 8 -10 11 -10 2 0 4 5 4 10 0 6 -5 10 -11 10 -5 0
-7 -4 -4 -10z"/>
<path d="M3190 5480 c0 -5 5 -10 10 -10 6 0 10 5 10 10 0 6 -4 10 -10 10 -5 0
-10 -4 -10 -10z"/>
<path d="M8130 5480 c0 -5 5 -10 10 -10 6 0 10 5 10 10 0 6 -4 10 -10 10 -5 0
-10 -4 -10 -10z"/>
<path d="M720 4859 c0 -5 5 -7 10 -4 6 3 10 8 10 11 0 2 -4 4 -10 4 -5 0 -10
-5 -10 -11z"/>
<path d="M10605 4860 c3 -5 8 -10 11 -10 2 0 4 5 4 10 0 6 -5 10 -11 10 -5 0
-7 -4 -4 -10z"/>
<path d="M2880 4760 c0 -5 5 -10 11 -10 5 0 7 5 4 10 -3 6 -8 10 -11 10 -2 0
-4 -4 -4 -10z"/>
<path d="M3910 4760 c0 -5 5 -10 10 -10 6 0 10 5 10 10 0 6 -4 10 -10 10 -5 0
-10 -4 -10 -10z"/>
<path d="M4220 4450 c0 -5 5 -10 11 -10 5 0 7 5 4 10 -3 6 -8 10 -11 10 -2 0
-4 -4 -4 -10z"/>
<path d="M0 4139 c0 -5 5 -7 10 -4 5 3 10 8 10 11 0 2 -4 4 -10 4 -5 0 -10 -5
-10 -11z"/>
<path d="M105 4040 c-3 -5 -1 -10 4 -10 6 0 11 5 11 10 0 6 -2 10 -4 10 -3 0
-8 -4 -11 -10z"/>
<path d="M11220 4040 c0 -5 5 -10 11 -10 5 0 7 5 4 10 -3 6 -8 10 -11 10 -2 0
-4 -4 -4 -10z"/>
<path d="M415 3730 c-3 -5 -1 -10 4 -10 6 0 11 5 11 10 0 6 -2 10 -4 10 -3 0
-8 -4 -11 -10z"/>
<path d="M1855 3730 c-3 -5 -1 -10 4 -10 6 0 11 5 11 10 0 6 -2 10 -4 10 -3 0
-8 -4 -11 -10z"/>
<path d="M9470 3730 c0 -5 5 -10 10 -10 6 0 10 5 10 10 0 6 -4 10 -10 10 -5 0
-10 -4 -10 -10z"/>
<path d="M10910 3730 c0 -5 5 -10 11 -10 5 0 7 5 4 10 -3 6 -8 10 -11 10 -2 0
-4 -4 -4 -10z"/>
<path d="M3295 3110 c3 -5 8 -10 11 -10 2 0 4 5 4 10 0 6 -5 10 -11 10 -5 0
-7 -4 -4 -10z"/>
<path d="M10295 3110 c3 -5 8 -10 11 -10 2 0 4 5 4 10 0 6 -5 10 -11 10 -5 0
-7 -4 -4 -10z"/>
<path d="M12355 3110 c3 -5 8 -10 11 -10 2 0 4 5 4 10 0 6 -5 10 -11 10 -5 0
-7 -4 -4 -10z"/>
<path d="M1130 3010 c0 -5 5 -10 10 -10 6 0 10 5 10 10 0 6 -4 10 -10 10 -5 0
-10 -4 -10 -10z"/>
<path d="M10190 3010 c0 -5 5 -10 10 -10 6 0 10 5 10 10 0 6 -4 10 -10 10 -5
0 -10 -4 -10 -10z"/>
<path d="M12250 2800 c0 -5 5 -10 11 -10 5 0 7 5 4 10 -3 6 -8 10 -11 10 -2 0
-4 -4 -4 -10z"/>
<path d="M720 2589 c0 -5 5 -7 10 -4 6 3 10 8 10 11 0 2 -4 4 -10 4 -5 0 -10
-5 -10 -11z"/>
<path d="M9780 2589 c0 -5 5 -7 10 -4 6 3 10 8 10 11 0 2 -4 4 -10 4 -5 0 -10
-5 -10 -11z"/>
<path d="M12045 2590 c3 -5 8 -10 11 -10 2 0 4 5 4 10 0 6 -5 10 -11 10 -5 0
-7 -4 -4 -10z"/>
<path d="M0 1869 c0 -5 5 -7 10 -4 5 3 10 8 10 11 0 2 -4 4 -10 4 -5 0 -10 -5
-10 -11z"/>
<path d="M2265 1870 c3 -5 8 -10 11 -10 2 0 4 5 4 10 0 6 -5 10 -11 10 -5 0
-7 -4 -4 -10z"/>
<path d="M9060 1869 c0 -5 5 -7 10 -4 6 3 10 8 10 11 0 2 -4 4 -10 4 -5 0 -10
-5 -10 -11z"/>
<path d="M11325 1870 c3 -5 8 -10 11 -10 2 0 4 5 4 10 0 6 -5 10 -11 10 -5 0
-7 -4 -4 -10z"/>
<path d="M105 1770 c-3 -5 -1 -10 4 -10 6 0 11 5 11 10 0 6 -2 10 -4 10 -3 0
-8 -4 -11 -10z"/>
<path d="M2160 1770 c0 -5 5 -10 10 -10 6 0 10 5 10 10 0 6 -4 10 -10 10 -5 0
-10 -4 -10 -10z"/>
<path d="M9165 1770 c-3 -5 -1 -10 4 -10 6 0 11 5 11 10 0 6 -2 10 -4 10 -3 0
-8 -4 -11 -10z"/>
<path d="M11220 1770 c0 -5 5 -10 11 -10 5 0 7 5 4 10 -3 6 -8 10 -11 10 -2 0
-4 -4 -4 -10z"/>
<path d="M5355 1050 c-3 -5 -1 -10 4 -10 6 0 11 5 11 10 0 6 -2 10 -4 10 -3 0
-8 -4 -11 -10z"/>
<path d="M5970 1050 c0 -5 5 -10 11 -10 5 0 7 5 4 10 -3 6 -8 10 -11 10 -2 0
-4 -4 -4 -10z"/>
<path d="M1030 839 c0 -5 5 -7 10 -4 6 3 10 8 10 11 0 2 -4 4 -10 4 -5 0 -10
-5 -10 -11z"/>
<path d="M3295 840 c3 -5 8 -10 11 -10 2 0 4 5 4 10 0 6 -5 10 -11 10 -5 0 -7
-4 -4 -10z"/>
<path d="M8030 839 c0 -5 5 -7 10 -4 6 3 10 8 10 11 0 2 -4 4 -10 4 -5 0 -10
-5 -10 -11z"/>
<path d="M10295 840 c3 -5 8 -10 11 -10 2 0 4 5 4 10 0 6 -5 10 -11 10 -5 0
-7 -4 -4 -10z"/>
<path d="M12355 840 c3 -5 8 -10 11 -10 2 0 4 5 4 10 0 6 -5 10 -11 10 -5 0
-7 -4 -4 -10z"/>
<path d="M1130 740 c0 -5 5 -10 10 -10 6 0 10 5 10 10 0 6 -4 10 -10 10 -5 0
-10 -4 -10 -10z"/>
<path d="M5660 740 c0 -5 5 -10 10 -10 6 0 10 5 10 10 0 6 -4 10 -10 10 -5 0
-10 -4 -10 -10z"/>
<path d="M10190 740 c0 -5 5 -10 10 -10 6 0 10 5 10 10 0 6 -4 10 -10 10 -5 0
-10 -4 -10 -10z"/>
<path d="M12350 630 c0 -5 5 -10 10 -10 6 0 10 5 10 10 0 6 -4 10 -10 10 -5 0
-10 -4 -10 -10z"/>
<path d="M3020 559 c-60 -24 -92 -80 -79 -138 10 -47 43 -71 132 -96 58 -17
72 -24 72 -40 0 -31 -88 -34 -127 -5 l-29 21 -34 -21 c-40 -25 -42 -31 -17
-53 50 -46 191 -64 252 -32 42 22 70 63 70 102 0 72 -35 103 -155 136 -38 11
-50 19 -50 33 0 26 69 32 95 9 21 -19 49 -14 75 15 17 19 17 21 1 38 -33 37
-148 54 -206 31z"/>
<path d="M3290 558 c0 -7 28 -95 62 -195 l63 -183 57 0 56 0 61 183 c34 100
61 188 61 195 0 9 -14 12 -47 10 l-48 -3 -30 -105 c-17 -58 -34 -112 -36 -120
-3 -8 -20 32 -38 90 -17 58 -35 112 -40 120 -11 20 -121 27 -121 8z"/>
<path d="M3784 551 c-129 -59 -138 -265 -15 -348 47 -32 137 -32 176 -1 l28
22 15 -22 c8 -12 23 -22 33 -22 17 0 19 9 19 94 0 109 3 106 -101 106 -64 0
-69 -1 -75 -24 -8 -34 2 -46 37 -46 32 0 34 -3 19 -31 -23 -42 -108 -14 -110
36 -5 128 9 175 55 175 26 0 65 -31 65 -51 0 -8 16 -10 51 -6 29 4 54 8 56 11
7 7 -23 59 -49 83 -49 46 -133 56 -204 24z"/>
<path d="M4277 555 c-9 -21 -9 -338 -1 -359 5 -12 20 -16 60 -16 l53 0 3 68 3
67 70 6 c39 3 80 11 92 17 49 27 70 124 37 170 -29 42 -72 55 -195 60 -102 4
-117 2 -122 -13z m211 -106 c4 -33 -18 -51 -60 -47 -30 3 -33 6 -36 41 l-3 38
48 -3 c43 -3 48 -6 51 -29z"/>
<path d="M4655 548 c-3 -13 -4 -99 -3 -193 l3 -170 47 -3 47 -3 3 103 3 103
75 -103 74 -103 46 3 45 3 0 190 0 190 -45 0 -45 0 -5 -93 -5 -93 -68 95 -68
96 -49 0 c-43 0 -50 -3 -55 -22z"/>
<path d="M5144 552 c-136 -64 -138 -287 -2 -358 43 -22 130 -18 163 8 l28 22
15 -22 c8 -12 23 -22 33 -22 17 0 19 9 19 94 0 109 3 106 -100 106 -58 0 -70
-3 -75 -19 -9 -31 5 -51 36 -51 32 0 34 -3 19 -31 -14 -26 -71 -26 -94 0 -13
15 -18 38 -18 90 -1 82 18 121 57 121 23 0 57 -25 66 -47 5 -13 79 -24 79 -12
0 5 7 9 15 9 8 0 15 4 15 9 0 15 -45 74 -72 94 -40 30 -130 34 -184 9z"/>
<path d="M5637 563 c-4 -3 -7 -91 -7 -195 l0 -189 153 3 152 3 0 40 0 40 -92
3 -93 3 0 29 c0 30 1 30 55 30 l55 0 0 45 0 45 -55 0 c-54 0 -55 0 -55 30 l0
30 90 0 90 0 0 45 0 45 -143 0 c-79 0 -147 -3 -150 -7z"/>
<path d="M5987 563 c-6 -10 -9 -91 -8 -260 l1 -123 60 0 60 0 0 69 0 69 76 4
c73 3 77 5 110 41 55 59 44 137 -25 179 -29 19 -54 23 -152 26 -64 2 -119 0
-122 -5z m207 -105 c18 -29 -4 -53 -53 -56 l-41 -3 0 41 0 41 41 -3 c27 -2 46
-9 53 -20z"/>
<path d="M6427 549 c-106 -56 -78 -187 46 -219 82 -21 92 -26 92 -46 0 -16 -8
-19 -51 -22 -40 -2 -54 1 -69 18 -23 26 -33 25 -68 -3 -36 -29 -29 -50 28 -77
31 -15 63 -21 109 -21 110 0 168 41 170 121 1 63 -26 90 -127 123 -52 17 -87
34 -87 42 0 28 67 34 110 9 26 -16 29 -16 58 6 39 29 30 50 -28 74 -55 22
-136 20 -183 -5z"/>
<path d="M6990 436 c0 -149 -6 -166 -61 -166 -29 0 -30 -1 -27 -42 l3 -43 59
-3 c70 -4 109 10 125 44 7 15 11 87 11 184 l0 160 -55 0 -55 0 0 -134z"/>
<path d="M7160 376 l0 -196 54 0 c62 0 66 5 66 85 l0 53 70 4 c84 4 119 26
138 86 12 37 12 46 -5 79 -30 62 -69 77 -205 82 l-118 3 0 -196z m208 87 c19
-36 -5 -63 -55 -63 -32 0 -33 2 -33 40 0 40 0 40 40 40 27 0 42 -5 48 -17z"/>
<path d="M7635 556 c-37 -17 -80 -62 -94 -98 -5 -14 -11 -53 -12 -86 -3 -71
27 -133 80 -169 44 -30 132 -32 177 -4 31 19 32 19 52 -1 12 -12 27 -18 36
-15 22 9 23 168 2 186 -9 7 -42 11 -88 9 l-73 -3 -3 -32 c-3 -31 -1 -33 27
-33 19 0 31 -5 31 -13 0 -22 -23 -37 -57 -37 -26 0 -36 6 -48 30 -18 34 -20
114 -4 159 19 53 81 54 104 2 9 -21 15 -22 59 -17 27 3 51 8 55 11 13 13 -36
81 -74 102 -46 26 -123 30 -170 9z"/>
<path d="M8120 376 l0 -196 93 0 c111 0 157 12 202 51 39 34 57 80 57 144 0
131 -67 183 -249 193 l-103 5 0 -197z m201 85 c21 -17 24 -28 24 -85 0 -75
-17 -101 -73 -112 l-33 -7 2 89 c0 49 0 94 -1 99 -9 39 40 49 81 16z"/>
<path d="M8510 558 c0 -7 18 -40 41 -73 78 -116 77 -103 14 -197 -30 -46 -55
-88 -55 -95 0 -9 16 -13 50 -13 l50 0 31 55 c17 30 34 55 38 55 3 0 21 -25 39
-55 l33 -55 60 0 c35 0 59 4 59 11 0 6 -28 53 -61 105 l-61 94 51 78 c28 43
51 84 51 90 0 13 -78 17 -96 4 -6 -4 -21 -26 -34 -49 -13 -24 -27 -43 -31 -43
-3 0 -12 13 -19 29 -23 55 -46 71 -105 71 -37 0 -55 -4 -55 -12z"/>
<path d="M8917 564 c-4 -4 -7 -92 -7 -196 l0 -188 60 0 60 0 0 75 0 74 58 3
57 3 0 35 0 35 -57 3 -58 3 0 34 0 34 88 3 87 3 0 40 0 40 -141 3 c-77 1 -143
-1 -147 -4z"/>
<path d="M1340 530 c0 -5 5 -10 11 -10 5 0 7 5 4 10 -3 6 -8 10 -11 10 -2 0
-4 -4 -4 -10z"/>
<path d="M12250 530 c0 -5 5 -10 11 -10 5 0 7 5 4 10 -3 6 -8 10 -11 10 -2 0
-4 -4 -4 -10z"/>
<path d="M2785 449 c-74 -42 -51 -149 32 -149 95 0 106 133 13 154 -14 3 -34
1 -45 -5z"/>
<path d="M4120 447 c-37 -19 -52 -57 -39 -96 29 -82 149 -63 149 23 0 62 -58
100 -110 73z"/>
<path d="M5484 450 c-28 -11 -54 -48 -54 -76 0 -39 37 -74 79 -74 88 0 112
107 34 148 -25 14 -30 14 -59 2z"/>
<path d="M6764 450 c-28 -11 -54 -48 -54 -76 0 -39 37 -74 79 -74 88 0 112
107 34 148 -25 14 -30 14 -59 2z"/>
<path d="M7965 449 c-74 -42 -51 -149 32 -149 95 0 106 133 13 154 -14 3 -34
1 -45 -5z"/>
<path d="M9285 449 c-50 -28 -62 -93 -23 -129 49 -46 132 -12 132 54 0 59 -62
101 -109 75z"/>
</g>
</svg>
